PathFileType	4	(X/Y/Z)	/Users/mathieubourgeois/Desktop/Analyse/Traitement/Sujet_05/Transformed_Static_Sujet_05_Tpose.trc
DataRate	CameraRate	NumFrames	NumMarkers	Units	OrigDataRate	OrigDataStartFrame	OrigNumFrames
120.000000	120.000000	4	36	mm	120.000000	29	232
Frame#	Time	RFHD			RANE			STRN			LANI			LKNE			T10			RHUM			RWRB			C7			LFWT			LTOE			RTOE			LWRA			LBWT			RBWT			RFWT			LKNI			RKNI			RKNE			LANE			RANI			LHEE			RHEE			LHUM			LRAD			RRAD			RWRA			LWRB			LFHD			LBHD			RBHD			RSHO			LSHO			CLAV			LCAR			RCAR			
		X1	Y1	Z1	X2	Y2	Z2	X3	Y3	Z3	X4	Y4	Z4	X5	Y5	Z5	X6	Y6	Z6	X7	Y7	Z7	X8	Y8	Z8	X9	Y9	Z9	X10	Y10	Z10	X11	Y11	Z11	X12	Y12	Z12	X13	Y13	Z13	X14	Y14	Z14	X15	Y15	Z15	X16	Y16	Z16	X17	Y17	Z17	X18	Y18	Z18	X19	Y19	Z19	X20	Y20	Z20	X21	Y21	Z21	X22	Y22	Z22	X23	Y23	Z23	X24	Y24	Z24	X25	Y25	Z25	X26	Y26	Z26	X27	Y27	Z27	X28	Y28	Z28	X29	Y29	Z29	X30	Y30	Z30	X31	Y31	Z31	X32	Y32	Z32	X33	Y33	Z33	X34	Y34	Z34	X35	Y35	Z35	X36	Y36	Z36	

30	0.2416666666666667	-718.8798217773438	1635.151123046875	349.0630798339841	-822.9304809570312	75.39930725097658	193.7070312499999	-630.134765625	1205.821533203125	369.2666625976561	-536.7901611328125	83.56534576416017	227.2281646728515	-464.6420593261719	480.6021118164062	255.361831665039	-644.140380859375	1204.52978515625	144.0699462890623	-1065.7333984375	1364.814819335938	222.5017852783201	-1298.494995117188	1446.660400390625	276.5726928710935	-643.6215209960938	1434.642700195312	185.7588043212889	-512.1637573242188	930.1754760742188	333.4449157714843	-472.5211791992188	34.32221603393557	385.5224304199218	-829.7957763671875	37.05472946166994	391.3060302734374	46.10459136962888	1382.800048828125	233.840362548828	-583.2091674804688	957.6443481445312	162.4821777343749	-716.7752685546875	958.2998657226562	167.8178863525389	-751.9507446289062	922.6043090820312	342.718048095703	-567.84814453125	446.0544128417969	244.7132110595702	-703.3295288085938	426.3370666503906	260.702667236328	-800.5106201171875	476.1748046875	261.6705627441405	-463.7262268066406	87.02909088134767	186.2433319091796	-747.4187622070312	73.94168853759767	239.6263122558593	-511.3671875	44.33069610595704	142.1397247314453	-771.9884033203125	38.09381866455079	147.4776000976562	-208.8456268310547	1381.562377929688	193.041534423828	-219.310043334961	1332.678588867188	245.8615112304686	-1059.846923828125	1326.403564453125	283.6405029296873	-1313.146484375	1377.998168945312	258.4640808105466	31.86021995544431	1451.843139648438	238.3753509521484	-570.3981323242188	1647.400390625	352.2280883789061	-554.100830078125	1572.57666015625	218.4525451660155	-688.7511596679688	1565.351684570312	192.0444030761717	-790.7125244140625	1442.13525390625	235.9716644287108	-503.6326904296875	1441.528442382812	221.8552093505858	-640.5070190429688	1380.553100585938	319.4843444824218	116.547981262207	1437.605834960938	207.5938568115234	-1392.963012695312	1426.576782226562	237.3590087890622	
31	0.25	-718.8961181640625	1635.127563476562	349.1031494140623	-822.9304809570312	75.40062713623048	193.6985015869139	-630.1597290039062	1205.830688476562	369.2570190429686	-536.7868041992188	83.56744384765626	227.2198028564453	-464.6668090820313	480.5960083007812	255.3497924804687	-644.177734375	1204.520874023438	144.0447387695311	-1065.787231445312	1364.842895507812	222.5208435058591	-1298.534423828125	1446.719604492188	276.5675354003903	-643.6619873046875	1434.632080078125	185.7446899414061	-512.2050170898438	930.1753540039062	333.4476623535155	-472.5194396972657	34.32254791259768	385.5266723632812	-829.7947998046875	37.0567207336426	391.2978210449218	46.04892349243161	1382.714599609375	233.8995361328124	-583.2230834960938	957.6365356445312	162.4698028564452	-716.8106689453125	958.2931518554688	167.808151245117	-751.99365234375	922.6104736328125	342.6972045898436	-567.8779907226562	446.048583984375	244.7064208984374	-703.355712890625	426.3458251953125	260.7290954589843	-800.54736328125	476.169189453125	261.6372680664061	-463.7338256835938	87.02982330322267	186.2392883300781	-747.4277954101562	73.95946502685548	239.6333007812499	-511.3629150390625	44.33310317993165	142.141860961914	-771.9966430664062	38.10077667236329	147.4775238037109	-208.8847961425782	1381.525024414062	193.0296936035155	-219.3597869873047	1332.634521484375	245.9116668701171	-1059.890014648438	1326.432495117188	283.6372985839842	-1313.18310546875	1378.037109375	258.4431457519529	31.83249664306638	1451.75341796875	238.373809814453	-570.428466796875	1647.364013671875	352.2769775390623	-554.1367797851562	1572.60009765625	218.4870147705077	-688.771240234375	1565.38525390625	192.0624237060545	-790.7453002929688	1442.138916015625	235.9420318603514	-503.6641845703125	1441.525146484375	221.8149566650389	-640.5267944335938	1380.554321289062	319.4450378417968	116.506607055664	1437.489990234375	207.6265869140624	-1392.977783203125	1426.615844726562	237.3124389648435	
32	0.2583333333333333	-718.91650390625	1635.113159179688	349.1420898437498	-822.9312744140625	75.40181732177736	193.6929168701171	-630.210205078125	1205.8291015625	369.2523498535155	-536.7974853515625	83.56817626953126	227.2294769287109	-464.6957092285157	480.59423828125	255.3307495117187	-644.2136840820312	1204.515747070312	144.0338745117186	-1065.81201171875	1364.846313476562	222.5023040771482	-1298.573120117188	1446.7431640625	276.5533447265622	-643.6906127929688	1434.640991210938	185.7227783203123	-512.2372436523438	930.1658935546875	333.4459228515624	-472.5257263183594	34.32451629638674	385.5252075195312	-829.7974243164062	37.05846023559572	391.3030395507811	46.01101303100583	1382.621948242188	233.959243774414	-583.2657470703125	957.6258544921875	162.4568634033202	-716.849609375	958.2838134765625	167.7979736328124	-752.041015625	922.623046875	342.6974487304686	-567.900146484375	446.0620727539062	244.719757080078	-703.3859252929688	426.3474426269531	260.7227783203124	-800.5809326171875	476.1734619140625	261.6631469726561	-463.727783203125	87.03274536132814	186.2389831542968	-747.4244995117188	73.94692230224611	239.6250762939452	-511.3618774414062	44.32620239257813	142.1434631347656	-771.9913330078125	38.10308074951173	147.4794158935546	-208.9243469238282	1381.467041015625	193.0629882812499	-219.3884887695313	1332.584594726562	245.9247741699218	-1059.925903320312	1326.444091796875	283.6405029296873	-1313.210815429688	1378.059692382812	258.4244689941404	31.80834197998044	1451.664428710938	238.4053497314452	-570.4369506835938	1647.334228515625	352.329132080078	-554.16162109375	1572.6123046875	218.4870605468749	-688.7976684570312	1565.434936523438	192.0680084228514	-790.7799072265625	1442.137329101562	235.9229583740233	-503.709228515625	1441.523559570312	221.799606323242	-640.5577392578125	1380.560913085938	319.4352722167968	116.4810638427734	1437.360473632812	207.6580963134765	-1393.0068359375	1426.633422851562	237.2843017578122	
33	0.2666666666666667	-718.923095703125	1635.10498046875	349.1686401367185	-822.9356689453125	75.4043655395508	193.6934204101561	-630.239013671875	1205.821411132812	369.2246093749999	-536.7916870117188	83.57254028320314	227.2306365966796	-464.7131652832032	480.6020202636719	255.3110198974609	-644.2427978515625	1204.504028320312	144.0407867431639	-1065.847900390625	1364.848754882812	222.493698120117	-1298.60205078125	1446.745727539062	276.5518493652341	-643.73046875	1434.646728515625	185.712188720703	-512.2848510742188	930.166015625	333.4490966796874	-472.5179748535157	34.33407974243166	385.5210266113281	-829.7994995117188	37.06512451171877	391.3077697753905	45.96775817871091	1382.5234375	234.0216827392577	-583.2984008789062	957.619140625	162.4653472900389	-716.8870849609375	958.2757568359375	167.7998809814452	-752.0927734375	922.6273193359375	342.681427001953	-567.9291381835938	446.060546875	244.7198791503905	-703.4071044921875	426.3548278808594	260.7175903320311	-800.5979614257812	476.1672973632812	261.6465454101561	-463.7367553710938	87.04215240478517	186.2343292236328	-747.4384155273438	73.9727249145508	239.6340942382812	-511.3601684570312	44.32681274414063	142.1419372558593	-771.9810180664062	38.11084747314454	147.482452392578	-208.964111328125	1381.415283203125	193.0963134765624	-219.4425354003907	1332.538940429688	245.9617309570311	-1059.952514648438	1326.444458007812	283.6506347656248	-1313.248657226562	1378.037231445312	258.4680175781248	31.77983474731442	1451.570922851562	238.4517364501952	-570.4427490234375	1647.29345703125	352.3697814941405	-554.1802368164062	1572.617431640625	218.5174560546874	-688.8199462890625	1565.468505859375	192.0914459228514	-790.8152465820312	1442.140258789062	235.891159057617	-503.7386169433594	1441.52685546875	221.7837677001952	-640.5980834960938	1380.572143554688	319.4291381835936	116.4688720703125	1437.221069335938	207.7194519042968	-1393.03857421875	1426.62158203125	237.284973144531	
